<svg xmlns="http://www.w3.org/2000/svg" viewBox="0 0 32 40" x="0px" y="0px"><title>account, profile</title><g data-name="account, profile"><path d="M26.16,25.6a14,14,0,1,0-20.32,0s0,0,0,0a14,14,0,0,0,20.3,0S26.16,25.61,26.16,25.6ZM16,4a12,12,0,0,1,9.77,19,11,11,0,0,0-6-5.28,6,6,0,1,0-7.52,0,11,11,0,0,0-6,5.28A12,12,0,0,1,16,4Zm-4,9a4,4,0,1,1,4,4A4,4,0,0,1,12,13ZM7.67,24.62a9,9,0,0,1,16.66,0,12,12,0,0,1-16.66,0Z"/></g><text x="0" y="47" fill="#000000" font-size="5px" font-weight="bold" font-family="'Helvetica Neue', Helvetica, Arial-Unicode, Arial, Sans-serif">Created by MHD AZMI DWIPRANATA</text><text x="0" y="52" fill="#000000" font-size="5px" font-weight="bold" font-family="'Helvetica Neue', Helvetica, Arial-Unicode, Arial, Sans-serif">from the Noun Project</text></svg>