<?xml version="1.0" standalone="yes"?><svg xmlns="http://www.w3.org/2000/svg" viewBox="0 0 100 119.35000000000001" x="0px" y="0px" style="zoom: 1;"><title>favorite</title><g data-name="Layer 2"><g><path d="M78.48,95.48a3.85,3.85,0,0,1-2.07-.59L50,78.29,23.59,94.89a3.91,3.91,0,0,1-5.87-4.27l7.63-30.24-24-20A3.9,3.9,0,0,1,3.64,33.5l31.13-2.1L46.37,2.45a3.91,3.91,0,0,1,7.25,0l11.61,29,31.12,2.1a3.9,3.9,0,0,1,2.24,6.89l-23.94,20,7.58,30.06a3.9,3.9,0,0,1-3.74,5ZM50,69.77a4,4,0,0,1,2.08.59L72.32,83.09,66.47,59.91a3.91,3.91,0,0,1,1.28-4L86.11,40.64,62.26,39a3.91,3.91,0,0,1-3.37-2.44L50,14.4,41.1,36.59A3.9,3.9,0,0,1,37.74,39L13.89,40.64,32.24,56a3.94,3.94,0,0,1,1.29,4L27.68,83.09,47.92,70.36A4,4,0,0,1,50,69.77Z"></path></g></g></svg>