<svg xmlns="http://www.w3.org/2000/svg" xmlns:xlink="http://www.w3.org/1999/xlink" version="1.1" x="0px" y="0px" viewBox="0 0 128 160" style="enable-background:new 0 0 128 128;" xml:space="preserve"><path d="M64,1.3C29.4,1.3,1.3,29.4,1.3,64s28.1,62.7,62.7,62.7s62.7-28.1,62.7-62.7S98.6,1.3,64,1.3z M40.9,89.6  c-2.1-7.1-3.2-14.5-3.5-22.1h23.2v19.4C53.7,87.2,47.2,88.1,40.9,89.6z M37.4,60.6c0.3-6.8,1.3-13.6,3-20.4c6.6,1.6,13.3,2.5,20,2.8  v17.6H37.4z M67.4,60.6V43c6.9-0.2,13.7-1.2,20.3-2.8c1.8,6.8,2.8,13.6,3,20.4H67.4z M67.4,86.9V67.4h23.4  c-0.3,7.3-1.5,14.8-3.5,22.2C81,88.1,74.3,87.2,67.4,86.9z M92.4,31.8c-2-6-4.7-11.8-8-17.3c7.2,3,13.5,7.4,18.7,13  C99.7,29.1,96.1,30.6,92.4,31.8z M75.8,13.3c4.3,6.6,7.7,13.5,10.1,20.3c-6,1.5-12.1,2.3-18.3,2.5V10.5c2.4,0.2,4.7,0.5,7,0.9  L75.8,13.3z M60.8,36.2c-6-0.2-12.1-1.1-18.2-2.5c2.4-6.9,5.8-13.8,10.1-20.5l1.2-1.8c2.2-0.4,4.5-0.7,6.9-0.9V36.2z M36.6,97.7  c2,5.5,4.6,10.9,7.6,16.1c-6.9-2.7-13-6.8-18.2-12C29.5,100.2,33,98.9,36.6,97.7z M52.6,114.7c-3.8-5.8-7-12-9.5-18.7  c5.6-1.3,11.4-2.1,17.4-2.3v23.8c-2.3-0.1-4.5-0.4-6.7-0.8L52.6,114.7z M67.4,93.7c6.1,0.2,11.9,1,17.6,2.3  c-2.5,6.7-5.7,12.9-9.4,18.6l-1.3,2c-2.2,0.4-4.5,0.7-6.9,0.9V93.7z M84.1,113.7c3-5.1,5.5-10.4,7.4-15.8c3.4,1.1,6.8,2.4,10.4,4  C96.9,106.9,90.9,110.9,84.1,113.7z M106.1,96.2c-3.9-1.9-8.1-3.5-12.4-4.9c2.3-7.7,3.6-15.7,3.9-23.9h19.9  c-0.7,10.9-4.6,20.9-10.8,29L106.1,96.2z M97.6,60.6c-0.3-7.5-1.4-15-3.3-22.3c4.1-1.3,8.4-3,13-5.3l0.3-0.1  c5.6,7.9,9.2,17.4,9.8,27.7H97.6z M44.2,14.2c-3.3,5.6-6,11.5-8,17.6c-3.9-1.3-7.7-2.8-11.2-4.4C30.2,21.7,36.8,17.2,44.2,14.2z   M20.5,32.8l0.5,0.2c4.1,2,8.5,3.8,13.2,5.3c-1.9,7.3-3,14.7-3.3,22.2H10.5C11.2,50.2,14.8,40.7,20.5,32.8z M30.6,67.3  c0.3,8.3,1.6,16.3,3.8,24c-4.3,1.4-8.4,3-12.5,4.9l-0.6,0.3c-6.2-8.2-10.2-18.2-10.8-29.1H30.6z"/><text x="0" y="143" fill="#000000" font-size="5px" font-weight="bold" font-family="'Helvetica Neue', Helvetica, Arial-Unicode, Arial, Sans-serif">Created by visual language</text><text x="0" y="148" fill="#000000" font-size="5px" font-weight="bold" font-family="'Helvetica Neue', Helvetica, Arial-Unicode, Arial, Sans-serif">from the Noun Project</text></svg>