<svg xmlns="http://www.w3.org/2000/svg" xmlns:xlink="http://www.w3.org/1999/xlink" viewBox="0 0 20 25" version="1.1" x="0px" y="0px"><title>add-circle</title><desc>Created with Sketch.</desc><g stroke="none" stroke-width="1" fill="none" fill-rule="evenodd"><g transform="translate(-480.000000, -121.000000)" fill="#000000" fill-rule="nonzero"><path d="M490,121 C495.522847,121 500,125.477153 500,131 C500,136.522847 495.522847,141 490,141 C484.477153,141 480,136.522847 480,131 C480,125.477153 484.477153,121 490,121 Z M490,123 C485.581722,123 482,126.581722 482,131 C482,135.418278 485.581722,139 490,139 C494.418278,139 498,135.418278 498,131 C498,126.581722 494.418278,123 490,123 Z M490,126 C490.552285,126 491,126.447715 491,127 L491,127 L491,130 L494,130 C494.512836,130 494.935507,130.38604 494.993272,130.883379 L495,131 C495,131.552285 494.552285,132 494,132 L494,132 L491,132 L491,135 C491,135.512836 490.61396,135.935507 490.116621,135.993272 L490,136 C489.447715,136 489,135.552285 489,135 L489,135 L489,132 L486,132 C485.487164,132 485.064493,131.61396 485.006728,131.116621 L485,131 C485,130.447715 485.447715,130 486,130 L486,130 L489,130 L489,127 C489,126.487164 489.38604,126.064493 489.883379,126.006728 Z"/></g></g><text x="0" y="35" fill="#000000" font-size="5px" font-weight="bold" font-family="'Helvetica Neue', Helvetica, Arial-Unicode, Arial, Sans-serif">Created by Danny Amacher</text><text x="0" y="40" fill="#000000" font-size="5px" font-weight="bold" font-family="'Helvetica Neue', Helvetica, Arial-Unicode, Arial, Sans-serif">from the Noun Project</text></svg>