<?xml version="1.0" standalone="yes"?><svg xmlns="http://www.w3.org/2000/svg" xmlns:xlink="http://www.w3.org/1999/xlink" version="1.1" x="0px" y="0px" viewBox="0 0 100 125" style="enable-background:new 0 0 100 100;zoom: 1;" xml:space="preserve"><path d="M86,29c0-4.963-4.037-9-9-9H62v-3c0-4.963-4.037-9-9-9h-6c-4.963,0-9,4.037-9,9v3H23c-4.963,0-9,4.037-9,9 c0,3.955,2.581,7.284,6.133,8.489L22.689,83.5c0.267,4.767,4.213,8.5,8.987,8.5h36.647c4.774,0,8.72-3.734,8.987-8.5l2.556-46.011 C83.42,36.284,86,32.955,86,29z M44,17c0-1.654,1.346-3,3-3h6c1.654,0,3,1.346,3,3v3H44V17z M68.324,86H31.676 c-1.591,0-2.908-1.245-2.996-2.834L26.172,38h47.657l-2.509,45.166C71.231,84.755,69.915,86,68.324,86z M77,32H23 c-1.654,0-3-1.346-3-3s1.346-3,3-3h54c1.654,0,3,1.346,3,3S78.654,32,77,32z M53,53v18c0,1.657-1.343,3-3,3s-3-1.343-3-3V53 c0-1.657,1.343-3,3-3S53,51.343,53,53z M65,53v18c0,1.657-1.343,3-3,3s-3-1.343-3-3V53c0-1.657,1.343-3,3-3S65,51.343,65,53z M41,53 v18c0,1.657-1.343,3-3,3s-3-1.343-3-3V53c0-1.657,1.343-3,3-3S41,51.343,41,53z"></path></svg>