<svg xmlns="http://www.w3.org/2000/svg" xmlns:xlink="http://www.w3.org/1999/xlink" version="1.1" x="0px" y="0px" viewBox="0 0 100 125" enable-background="new 0 0 100 100" xml:space="preserve"><g><path fill="#000000" d="M50,5C31.362,5,16.25,20.117,16.25,38.75c0,21.676,24.308,48.729,28.125,52.866   C45.952,93.33,47.281,95,50,95c2.72,0,4.043-1.67,5.625-3.384c3.823-4.137,28.125-31.19,28.125-52.866C83.75,20.117,68.633,5,50,5z    M50,58.438c-10.871,0-19.688-8.816-19.688-19.688S39.129,19.062,50,19.062s19.688,8.816,19.688,19.688S60.871,58.438,50,58.438z"/><path fill="#000000" d="M50,27.5c-6.213,0-11.25,5.043-11.25,11.25S43.787,50,50,50c6.208,0,11.25-5.043,11.25-11.25   S56.208,27.5,50,27.5z"/></g><text x="0" y="115" fill="#000000" font-size="5px" font-weight="bold" font-family="'Helvetica Neue', Helvetica, Arial-Unicode, Arial, Sans-serif">Created by Yamini Ahluwalia</text><text x="0" y="120" fill="#000000" font-size="5px" font-weight="bold" font-family="'Helvetica Neue', Helvetica, Arial-Unicode, Arial, Sans-serif">from the Noun Project</text></svg>