<?xml version="1.0" standalone="yes"?><svg xmlns="http://www.w3.org/2000/svg" data-name="Layer 1" viewBox="0 0 100 125" x="0px" y="0px" style="zoom: 1;"><title>64 all</title><path d="M78.82,21.18 a10.91,10.91 0 0 0 -15.41,0 L25.53,59.06 a2,2 0 0 0 -.27,.33 l-.05,.1 a2,2 0 0 0 -.14,.28 l0,0 L18.11,79.34 a2,2 0 0 0 2.55,2.55 L40.2,74.95 l0,0 a2,2 0 0 0 .27,-.13 l.1,-.05 a2,2 0 0 0 .33,-.27 L75.52,39.89 h0 l3.29,-3.29 A10.91,10.91 0 0 0 78.82,21.18 M39.52,70.23 l-9.76,-9.76 L61.53,28.72 l9.76,9.76 M27.76,64.13 l8.11,8.11 L23.28,76.72 M76,33.77 l-1.88,1.88 l-9.76,-9.76 L66.23,24 A6.9,6.9 0 0 1 76,33.77 "></path></svg>